<mxfile host="drawio-plugin" modified="2021-11-06T16:46:55.827Z" agent="5.0 (X11; Linux x86_64) AppleWebKit/537.36 (KHTML, like Gecko) Chrome/89.0.4389.114 Safari/537.36" etag="lzJH2LGWOUi8uuxG486w" version="14.7.4" type="embed"><diagram id="wvnQH-ytOZz0epC5SCsu" name="Page-1"><mxGraphModel dx="1306" dy="623" grid="1" gridSize="10" guides="1" tooltips="1" connect="1" arrows="1" fold="1" page="1" pageScale="1" pageWidth="827" pageHeight="1169" math="0" shadow="0"><root><mxCell id="0"/><mxCell id="1" parent="0"/><object label="" placeholders="1" class_name="root" id="xnaQbwarpPeM3jdV9O5F-1"><mxCell style="rounded=0;whiteSpace=wrap;html=1;container=0;connectable=0;allowArrows=0;treeFolding=0;moveCells=0;treeMoving=0;comic=0;rotatable=0;expand=1;autosize=1;resizeWidth=1;resizeHeight=1;metaEdit=1;" parent="1" vertex="1"><mxGeometry x="34" y="140" width="760" height="540" as="geometry"><mxRectangle x="40" y="400" width="50" height="40" as="alternateBounds"/></mxGeometry></mxCell></object><object label="trapezoid" placeholders="1" id="xnaQbwarpPeM3jdV9O5F-2"><mxCell style="rounded=0;whiteSpace=wrap;html=1;fontSize=18;connectable=0;allowArrows=0;rotatable=0;cloneable=0;deletable=0;" parent="xnaQbwarpPeM3jdV9O5F-1" vertex="1"><mxGeometry x="10" y="20" width="740" height="40" as="geometry"/></mxCell></object><mxCell id="xnaQbwarpPeM3jdV9O5F-3" value="" style="rounded=0;whiteSpace=wrap;html=1;connectable=0;allowArrows=0;container=1;collapsible=0;portConstraintRotation=0;rotatable=0;cloneable=0;deletable=0;recursiveResize=0;" parent="xnaQbwarpPeM3jdV9O5F-1" vertex="1"><mxGeometry x="10" y="70" width="740" height="460" as="geometry"><mxRectangle x="10" y="70" width="50" height="40" as="alternateBounds"/></mxGeometry></mxCell><object label="%value%" placeholders="1" value="0" block_name="y0" class_name="ConstantBlock" id="xnaQbwarpPeM3jdV9O5F-4"><mxCell style="ellipse;whiteSpace=wrap;html=1;comic=0;fontSize=24;align=center;allowArrows=0;connectable=0;container=1;collapsible=0;recursiveResize=1;direction=west;resizable=0;metaEdit=1;" parent="xnaQbwarpPeM3jdV9O5F-3" vertex="1"><mxGeometry x="6" y="90" width="80" height="80" as="geometry"/></mxCell></object><object label="%name%" placeholders="1" name="OUT1" class_name="OutputPortBlock" id="xnaQbwarpPeM3jdV9O5F-5"><mxCell style="triangle;fontSize=14;points=[[1,0.5]];allowArrows=0;verticalAlign=middle;horizontal=1;spacingTop=0;align=left;spacingLeft=4;spacingRight=0;html=1;comic=0;treeFolding=0;treeMoving=0;movable=1;resizable=0;rotatable=1;deletable=1;editable=1;connectable=1;movableLabel=1;spacing=2;aspect=fixed;metaEdit=1;" parent="xnaQbwarpPeM3jdV9O5F-4" vertex="1"><mxGeometry x="70" y="32.5" width="10" height="15" as="geometry"><mxPoint x="6" y="-7" as="offset"/></mxGeometry></mxCell></object><mxCell id="xnaQbwarpPeM3jdV9O5F-23" style="edgeStyle=orthogonalEdgeStyle;rounded=0;orthogonalLoop=1;jettySize=auto;html=1;exitX=1;exitY=0.5;exitDx=0;exitDy=0;entryX=0;entryY=0.5;entryDx=0;entryDy=0;" parent="xnaQbwarpPeM3jdV9O5F-3" source="xnaQbwarpPeM3jdV9O5F-6" target="xnaQbwarpPeM3jdV9O5F-21" edge="1"><mxGeometry relative="1" as="geometry"><Array as="points"><mxPoint x="66" y="188"/><mxPoint x="66" y="235"/></Array></mxGeometry></mxCell><mxCell id="xnaQbwarpPeM3jdV9O5F-31" style="edgeStyle=orthogonalEdgeStyle;rounded=0;orthogonalLoop=1;jettySize=auto;html=1;exitX=1;exitY=0.5;exitDx=0;exitDy=0;entryX=0;entryY=0.5;entryDx=0;entryDy=0;" parent="xnaQbwarpPeM3jdV9O5F-3" source="xnaQbwarpPeM3jdV9O5F-6" target="xnaQbwarpPeM3jdV9O5F-28" edge="1"><mxGeometry relative="1" as="geometry"><Array as="points"><mxPoint x="66" y="188"/><mxPoint x="66" y="315"/></Array></mxGeometry></mxCell><object label="%name%" placeholders="1" name="IN1" class_name="InputPortBlock" id="xnaQbwarpPeM3jdV9O5F-6"><mxCell style="triangle;fontSize=14;points=[[0,0.5],[1,0.5]];allowArrows=0;verticalAlign=middle;horizontal=1;spacingTop=0;align=right;spacingLeft=0;spacingRight=8;html=1;comic=0;treeFolding=0;treeMoving=0;resizable=0;movableLabel=1;spacing=2;aspect=fixed;metaEdit=1;" parent="xnaQbwarpPeM3jdV9O5F-3" vertex="1"><mxGeometry x="20" y="180" width="10" height="15" as="geometry"><mxPoint x="-4" y="-8" as="offset"/></mxGeometry></mxCell></object><object label="%name%" placeholders="1" name="OUT1" class_name="OutputPortBlock" id="xnaQbwarpPeM3jdV9O5F-7"><mxCell style="triangle;fontSize=14;points=[[0,0.5],[1,0.5]];allowArrows=0;verticalAlign=middle;horizontal=1;spacingTop=0;align=left;spacingLeft=4;spacingRight=0;html=1;comic=0;treeFolding=0;treeMoving=0;movable=1;resizable=0;rotatable=1;deletable=1;editable=1;connectable=1;movableLabel=1;spacing=2;aspect=fixed;metaEdit=1;" parent="xnaQbwarpPeM3jdV9O5F-3" vertex="1"><mxGeometry x="720" y="162.5" width="10" height="15" as="geometry"><mxPoint x="5" y="-7" as="offset"/></mxGeometry></mxCell></object><object label="%symbol%" placeholders="1" symbol="&amp;sum;" class_name="AdderBlock" block_name="accumulator" id="xnaQbwarpPeM3jdV9O5F-8"><mxCell style="whiteSpace=wrap;html=1;aspect=fixed;comic=0;fontSize=36;align=center;resizable=0;container=1;collapsible=0;points=[];allowArrows=0;spacingTop=-6;metaEdit=1;connectable=0;" parent="xnaQbwarpPeM3jdV9O5F-3" vertex="1"><mxGeometry x="576" y="130" width="80" height="80" as="geometry"/></mxCell></object><object label="%name%" placeholders="1" name="OUT1" class_name="OutputPortBlock" id="xnaQbwarpPeM3jdV9O5F-9"><mxCell style="triangle;fontSize=14;points=[[1,0.5]];allowArrows=0;verticalAlign=middle;horizontal=1;spacingTop=0;align=left;spacingLeft=4;spacingRight=0;html=1;comic=0;treeFolding=0;treeMoving=0;movable=1;resizable=0;rotatable=1;deletable=1;editable=1;connectable=1;movableLabel=1;spacing=2;aspect=fixed;metaEdit=1;" parent="xnaQbwarpPeM3jdV9O5F-8" vertex="1"><mxGeometry x="70" y="32.5" width="10" height="15" as="geometry"><mxPoint x="5" y="-7" as="offset"/></mxGeometry></mxCell></object><object label="%name%" placeholders="1" name="IN1" class_name="InputPortBlock" id="xnaQbwarpPeM3jdV9O5F-10"><mxCell style="triangle;fontSize=14;points=[[0,0.5]];allowArrows=0;verticalAlign=middle;horizontal=1;spacingTop=0;align=right;spacingLeft=0;spacingRight=8;html=1;comic=0;treeFolding=0;treeMoving=0;resizable=0;movableLabel=1;spacing=2;aspect=fixed;metaEdit=1;" parent="xnaQbwarpPeM3jdV9O5F-8" vertex="1"><mxGeometry y="17.5" width="10" height="15" as="geometry"><mxPoint x="-4" y="-8" as="offset"/></mxGeometry></mxCell></object><object label="%name%" placeholders="1" name="IN2" class_name="InputPortBlock" id="xnaQbwarpPeM3jdV9O5F-11"><mxCell style="triangle;fontSize=14;points=[[0,0.5]];allowArrows=0;verticalAlign=middle;horizontal=1;spacingTop=0;align=right;spacingLeft=0;spacingRight=8;html=1;comic=0;treeFolding=0;treeMoving=0;resizable=0;movableLabel=1;spacing=2;aspect=fixed;metaEdit=1;" parent="xnaQbwarpPeM3jdV9O5F-8" vertex="1"><mxGeometry y="47.5" width="10" height="15" as="geometry"><mxPoint x="-4" y="-8" as="offset"/></mxGeometry></mxCell></object><mxCell id="xnaQbwarpPeM3jdV9O5F-12" style="edgeStyle=orthogonalEdgeStyle;rounded=0;orthogonalLoop=1;jettySize=auto;html=1;exitX=1;exitY=0.5;exitDx=0;exitDy=0;entryX=0;entryY=0.5;entryDx=0;entryDy=0;" parent="xnaQbwarpPeM3jdV9O5F-3" source="xnaQbwarpPeM3jdV9O5F-9" target="xnaQbwarpPeM3jdV9O5F-7" edge="1"><mxGeometry relative="1" as="geometry"/></mxCell><object label="%symbol%" placeholders="1" symbol="D" class_name="DelayBlock" block_name="delay_state" id="xnaQbwarpPeM3jdV9O5F-13"><mxCell style="whiteSpace=wrap;html=1;aspect=fixed;comic=0;fontSize=36;align=center;resizable=0;container=1;collapsible=0;points=[];allowArrows=0;metaEdit=1;connectable=0;" parent="xnaQbwarpPeM3jdV9O5F-3" vertex="1"><mxGeometry x="370" y="115" width="80" height="80" as="geometry"/></mxCell></object><object label="%name%" placeholders="1" name="OUT1" class_name="OutputPortBlock" id="xnaQbwarpPeM3jdV9O5F-14"><mxCell style="triangle;fontSize=14;points=[[1,0.5]];allowArrows=0;verticalAlign=middle;horizontal=1;spacingTop=0;align=left;spacingLeft=4;spacingRight=0;html=1;comic=0;treeFolding=0;treeMoving=0;movable=1;resizable=0;rotatable=1;deletable=1;editable=1;connectable=1;movableLabel=1;spacing=2;aspect=fixed;metaEdit=1;" parent="xnaQbwarpPeM3jdV9O5F-13" vertex="1"><mxGeometry x="70" y="32.5" width="10" height="15" as="geometry"><mxPoint x="5" y="-7" as="offset"/></mxGeometry></mxCell></object><object label="%name%" placeholders="1" name="IC" class_name="InputPortBlock" id="xnaQbwarpPeM3jdV9O5F-15"><mxCell style="triangle;fontSize=14;points=[[0,0.5]];allowArrows=0;verticalAlign=middle;horizontal=1;spacingTop=0;align=right;spacingLeft=0;spacingRight=8;html=1;comic=0;treeFolding=0;treeMoving=0;resizable=0;movableLabel=1;spacing=2;aspect=fixed;metaEdit=1;" parent="xnaQbwarpPeM3jdV9O5F-13" vertex="1"><mxGeometry y="17.5" width="10" height="15" as="geometry"><mxPoint x="-4" y="-8" as="offset"/></mxGeometry></mxCell></object><object label="%name%" placeholders="1" name="IN1" class_name="InputPortBlock" id="xnaQbwarpPeM3jdV9O5F-16"><mxCell style="triangle;fontSize=14;points=[[0,0.5]];allowArrows=0;verticalAlign=middle;horizontal=1;spacingTop=0;align=right;spacingLeft=0;spacingRight=8;html=1;comic=0;treeFolding=0;treeMoving=0;resizable=0;movableLabel=1;spacing=2;aspect=fixed;metaEdit=1;" parent="xnaQbwarpPeM3jdV9O5F-13" vertex="1"><mxGeometry y="47.5" width="10" height="15" as="geometry"><mxPoint x="-4" y="-8" as="offset"/></mxGeometry></mxCell></object><object label="%symbol%" placeholders="1" symbol="D" class_name="DelayBlock" block_name="delay_input" id="xnaQbwarpPeM3jdV9O5F-18"><mxCell style="whiteSpace=wrap;html=1;aspect=fixed;comic=0;fontSize=36;align=center;resizable=0;container=1;collapsible=0;points=[];allowArrows=0;metaEdit=1;connectable=0;" parent="xnaQbwarpPeM3jdV9O5F-3" vertex="1"><mxGeometry x="130" y="180" width="80" height="80" as="geometry"/></mxCell></object><object label="%name%" placeholders="1" name="OUT1" class_name="OutputPortBlock" id="xnaQbwarpPeM3jdV9O5F-19"><mxCell style="triangle;fontSize=14;points=[[1,0.5]];allowArrows=0;verticalAlign=middle;horizontal=1;spacingTop=0;align=left;spacingLeft=4;spacingRight=0;html=1;comic=0;treeFolding=0;treeMoving=0;movable=1;resizable=0;rotatable=1;deletable=1;editable=1;connectable=1;movableLabel=1;spacing=2;aspect=fixed;metaEdit=1;" parent="xnaQbwarpPeM3jdV9O5F-18" vertex="1"><mxGeometry x="70" y="32.5" width="10" height="15" as="geometry"><mxPoint x="5" y="-7" as="offset"/></mxGeometry></mxCell></object><object label="%name%" placeholders="1" name="IC" class_name="InputPortBlock" id="xnaQbwarpPeM3jdV9O5F-20"><mxCell style="triangle;fontSize=14;points=[[0,0.5]];allowArrows=0;verticalAlign=middle;horizontal=1;spacingTop=0;align=right;spacingLeft=0;spacingRight=8;html=1;comic=0;treeFolding=0;treeMoving=0;resizable=0;movableLabel=1;spacing=2;aspect=fixed;metaEdit=1;" parent="xnaQbwarpPeM3jdV9O5F-18" vertex="1"><mxGeometry y="17.5" width="10" height="15" as="geometry"><mxPoint x="-4" y="-8" as="offset"/></mxGeometry></mxCell></object><object label="%name%" placeholders="1" name="IN1" class_name="InputPortBlock" id="xnaQbwarpPeM3jdV9O5F-21"><mxCell style="triangle;fontSize=14;points=[[0,0.5]];allowArrows=0;verticalAlign=middle;horizontal=1;spacingTop=0;align=right;spacingLeft=0;spacingRight=8;html=1;comic=0;treeFolding=0;treeMoving=0;resizable=0;movableLabel=1;spacing=2;aspect=fixed;metaEdit=1;" parent="xnaQbwarpPeM3jdV9O5F-18" vertex="1"><mxGeometry y="47.5" width="10" height="15" as="geometry"><mxPoint x="-4" y="-8" as="offset"/></mxGeometry></mxCell></object><mxCell id="xnaQbwarpPeM3jdV9O5F-24" style="edgeStyle=orthogonalEdgeStyle;rounded=0;orthogonalLoop=1;jettySize=auto;html=1;exitX=1;exitY=0.5;exitDx=0;exitDy=0;entryX=0;entryY=0.5;entryDx=0;entryDy=0;" parent="xnaQbwarpPeM3jdV9O5F-3" source="xnaQbwarpPeM3jdV9O5F-5" target="xnaQbwarpPeM3jdV9O5F-20" edge="1"><mxGeometry relative="1" as="geometry"/></mxCell><object label="%symbol%" placeholders="1" symbol="&amp;sum;" class_name="AdderBlock" block_name="mid_adder" id="xnaQbwarpPeM3jdV9O5F-25"><mxCell style="whiteSpace=wrap;html=1;aspect=fixed;comic=0;fontSize=36;align=center;resizable=0;container=1;collapsible=0;points=[];allowArrows=0;spacingTop=-6;metaEdit=1;connectable=0;" parent="xnaQbwarpPeM3jdV9O5F-3" vertex="1"><mxGeometry x="266" y="260" width="80" height="80" as="geometry"/></mxCell></object><object label="%name%" placeholders="1" name="OUT1" class_name="OutputPortBlock" id="xnaQbwarpPeM3jdV9O5F-26"><mxCell style="triangle;fontSize=14;points=[[1,0.5]];allowArrows=0;verticalAlign=middle;horizontal=1;spacingTop=0;align=left;spacingLeft=4;spacingRight=0;html=1;comic=0;treeFolding=0;treeMoving=0;movable=1;resizable=0;rotatable=1;deletable=1;editable=1;connectable=1;movableLabel=1;spacing=2;aspect=fixed;metaEdit=1;" parent="xnaQbwarpPeM3jdV9O5F-25" vertex="1"><mxGeometry x="70" y="32.5" width="10" height="15" as="geometry"><mxPoint x="5" y="-7" as="offset"/></mxGeometry></mxCell></object><object label="%name%" placeholders="1" name="IN1" class_name="InputPortBlock" id="xnaQbwarpPeM3jdV9O5F-27"><mxCell style="triangle;fontSize=14;points=[[0,0.5]];allowArrows=0;verticalAlign=middle;horizontal=1;spacingTop=0;align=right;spacingLeft=0;spacingRight=8;html=1;comic=0;treeFolding=0;treeMoving=0;resizable=0;movableLabel=1;spacing=2;aspect=fixed;metaEdit=1;" parent="xnaQbwarpPeM3jdV9O5F-25" vertex="1"><mxGeometry y="17.5" width="10" height="15" as="geometry"><mxPoint x="-4" y="-8" as="offset"/></mxGeometry></mxCell></object><object label="%name%" placeholders="1" name="IN2" class_name="InputPortBlock" id="xnaQbwarpPeM3jdV9O5F-28"><mxCell style="triangle;fontSize=14;points=[[0,0.5]];allowArrows=0;verticalAlign=middle;horizontal=1;spacingTop=0;align=right;spacingLeft=0;spacingRight=8;html=1;comic=0;treeFolding=0;treeMoving=0;resizable=0;movableLabel=1;spacing=2;aspect=fixed;metaEdit=1;" parent="xnaQbwarpPeM3jdV9O5F-25" vertex="1"><mxGeometry y="47.5" width="10" height="15" as="geometry"><mxPoint x="-4" y="-8" as="offset"/></mxGeometry></mxCell></object><mxCell id="xnaQbwarpPeM3jdV9O5F-32" style="edgeStyle=orthogonalEdgeStyle;rounded=0;orthogonalLoop=1;jettySize=auto;html=1;exitX=1;exitY=0.5;exitDx=0;exitDy=0;entryX=0;entryY=0.5;entryDx=0;entryDy=0;" parent="xnaQbwarpPeM3jdV9O5F-3" source="xnaQbwarpPeM3jdV9O5F-19" target="xnaQbwarpPeM3jdV9O5F-27" edge="1"><mxGeometry relative="1" as="geometry"/></mxCell><object label="%symbol%" placeholders="1" symbol="&amp;prod;" class_name="ProductBlock" block_name="mult" id="xnaQbwarpPeM3jdV9O5F-33"><mxCell style="whiteSpace=wrap;html=1;aspect=fixed;comic=0;fontSize=36;align=center;resizable=0;container=1;collapsible=0;points=[];allowArrows=0;spacingTop=-6;metaEdit=1;connectable=0;" parent="xnaQbwarpPeM3jdV9O5F-3" vertex="1"><mxGeometry x="426" y="310" width="80" height="80" as="geometry"/></mxCell></object><object label="%name%" placeholders="1" name="OUT1" class_name="OutputPortBlock" id="xnaQbwarpPeM3jdV9O5F-34"><mxCell style="triangle;fontSize=14;points=[[1,0.5]];allowArrows=0;verticalAlign=middle;horizontal=1;spacingTop=0;align=left;spacingLeft=4;spacingRight=0;html=1;comic=0;treeFolding=0;treeMoving=0;movable=1;resizable=0;rotatable=1;deletable=1;editable=1;connectable=1;movableLabel=1;spacing=2;aspect=fixed;metaEdit=1;" parent="xnaQbwarpPeM3jdV9O5F-33" vertex="1"><mxGeometry x="70" y="32.5" width="10" height="15" as="geometry"><mxPoint x="5" y="-7" as="offset"/></mxGeometry></mxCell></object><object label="%name%" placeholders="1" name="IN1" class_name="InputPortBlock" id="xnaQbwarpPeM3jdV9O5F-35"><mxCell style="triangle;fontSize=14;points=[[0,0.5]];allowArrows=0;verticalAlign=middle;horizontal=1;spacingTop=0;align=right;spacingLeft=0;spacingRight=8;html=1;comic=0;treeFolding=0;treeMoving=0;resizable=0;movableLabel=1;spacing=2;aspect=fixed;metaEdit=1;" parent="xnaQbwarpPeM3jdV9O5F-33" vertex="1"><mxGeometry y="17.5" width="10" height="15" as="geometry"><mxPoint x="-4" y="-8" as="offset"/></mxGeometry></mxCell></object><object label="%name%" placeholders="1" name="IN2" class_name="InputPortBlock" id="xnaQbwarpPeM3jdV9O5F-36"><mxCell style="triangle;fontSize=14;points=[[0,0.5]];allowArrows=0;verticalAlign=middle;horizontal=1;spacingTop=0;align=right;spacingLeft=0;spacingRight=8;html=1;comic=0;treeFolding=0;treeMoving=0;resizable=0;movableLabel=1;spacing=2;aspect=fixed;metaEdit=1;" parent="xnaQbwarpPeM3jdV9O5F-33" vertex="1"><mxGeometry y="47.5" width="10" height="15" as="geometry"><mxPoint x="-4" y="-8" as="offset"/></mxGeometry></mxCell></object><mxCell id="xnaQbwarpPeM3jdV9O5F-37" style="edgeStyle=orthogonalEdgeStyle;rounded=0;orthogonalLoop=1;jettySize=auto;html=1;exitX=1;exitY=0.5;exitDx=0;exitDy=0;entryX=0;entryY=0.5;entryDx=0;entryDy=0;" parent="xnaQbwarpPeM3jdV9O5F-3" source="xnaQbwarpPeM3jdV9O5F-26" target="xnaQbwarpPeM3jdV9O5F-35" edge="1"><mxGeometry relative="1" as="geometry"/></mxCell><object label="%value%" placeholders="1" value="0.5" block_name="halver" class_name="ConstantBlock" id="xnaQbwarpPeM3jdV9O5F-38"><mxCell style="ellipse;whiteSpace=wrap;html=1;comic=0;fontSize=24;align=center;allowArrows=0;connectable=0;container=1;collapsible=0;recursiveResize=1;direction=west;resizable=0;metaEdit=1;" parent="xnaQbwarpPeM3jdV9O5F-3" vertex="1"><mxGeometry x="6" y="375" width="80" height="80" as="geometry"/></mxCell></object><object label="%name%" placeholders="1" name="OUT1" class_name="OutputPortBlock" id="xnaQbwarpPeM3jdV9O5F-39"><mxCell style="triangle;fontSize=14;points=[[1,0.5]];allowArrows=0;verticalAlign=middle;horizontal=1;spacingTop=0;align=left;spacingLeft=4;spacingRight=0;html=1;comic=0;treeFolding=0;treeMoving=0;movable=1;resizable=0;rotatable=1;deletable=1;editable=1;connectable=1;movableLabel=1;spacing=2;aspect=fixed;metaEdit=1;" parent="xnaQbwarpPeM3jdV9O5F-38" vertex="1"><mxGeometry x="70" y="32.5" width="10" height="15" as="geometry"><mxPoint x="6" y="-7" as="offset"/></mxGeometry></mxCell></object><mxCell id="xnaQbwarpPeM3jdV9O5F-45" style="edgeStyle=orthogonalEdgeStyle;rounded=0;orthogonalLoop=1;jettySize=auto;html=1;exitX=1;exitY=0.5;exitDx=0;exitDy=0;entryX=0;entryY=0.5;entryDx=0;entryDy=0;" parent="xnaQbwarpPeM3jdV9O5F-3" source="xnaQbwarpPeM3jdV9O5F-9" target="xnaQbwarpPeM3jdV9O5F-16" edge="1"><mxGeometry relative="1" as="geometry"><Array as="points"><mxPoint x="696" y="170"/><mxPoint x="696" y="70"/><mxPoint x="326" y="70"/><mxPoint x="326" y="170"/></Array></mxGeometry></mxCell><mxCell id="xnaQbwarpPeM3jdV9O5F-46" style="edgeStyle=orthogonalEdgeStyle;rounded=0;orthogonalLoop=1;jettySize=auto;html=1;exitX=1;exitY=0.5;exitDx=0;exitDy=0;entryX=0;entryY=0.5;entryDx=0;entryDy=0;" parent="xnaQbwarpPeM3jdV9O5F-3" source="xnaQbwarpPeM3jdV9O5F-14" target="xnaQbwarpPeM3jdV9O5F-10" edge="1"><mxGeometry relative="1" as="geometry"/></mxCell><mxCell id="xnaQbwarpPeM3jdV9O5F-47" style="edgeStyle=orthogonalEdgeStyle;rounded=0;orthogonalLoop=1;jettySize=auto;html=1;exitX=1;exitY=0.5;exitDx=0;exitDy=0;entryX=0;entryY=0.5;entryDx=0;entryDy=0;" parent="xnaQbwarpPeM3jdV9O5F-3" source="xnaQbwarpPeM3jdV9O5F-34" target="xnaQbwarpPeM3jdV9O5F-11" edge="1"><mxGeometry relative="1" as="geometry"><Array as="points"><mxPoint x="546" y="350"/><mxPoint x="546" y="185"/></Array></mxGeometry></mxCell><mxCell id="GLEw3y-7KCI7Nk5yLTBt-2" style="edgeStyle=orthogonalEdgeStyle;rounded=0;orthogonalLoop=1;jettySize=auto;html=1;exitX=1;exitY=0.5;exitDx=0;exitDy=0;entryX=0;entryY=0.5;entryDx=0;entryDy=0;" parent="xnaQbwarpPeM3jdV9O5F-3" source="GLEw3y-7KCI7Nk5yLTBt-1" target="xnaQbwarpPeM3jdV9O5F-15" edge="1"><mxGeometry relative="1" as="geometry"/></mxCell><object label="%name%" placeholders="1" name="IC" class_name="InputPortBlock" id="GLEw3y-7KCI7Nk5yLTBt-1"><mxCell style="triangle;fontSize=14;points=[[0,0.5],[1,0.5]];allowArrows=0;verticalAlign=middle;horizontal=1;spacingTop=0;align=right;spacingLeft=0;spacingRight=8;html=1;comic=0;treeFolding=0;treeMoving=0;resizable=0;movableLabel=1;spacing=2;aspect=fixed;metaEdit=1;" parent="xnaQbwarpPeM3jdV9O5F-3" vertex="1"><mxGeometry x="10" y="50" width="10" height="15" as="geometry"><mxPoint x="-4" y="-8" as="offset"/></mxGeometry></mxCell></object><mxCell id="GLEw3y-7KCI7Nk5yLTBt-9" style="edgeStyle=orthogonalEdgeStyle;rounded=0;orthogonalLoop=1;jettySize=auto;html=1;exitX=1;exitY=0.5;exitDx=0;exitDy=0;entryX=0;entryY=0.5;entryDx=0;entryDy=0;" parent="xnaQbwarpPeM3jdV9O5F-3" source="GLEw3y-7KCI7Nk5yLTBt-3" target="GLEw3y-7KCI7Nk5yLTBt-6" edge="1"><mxGeometry relative="1" as="geometry"/></mxCell><object label="%name%" placeholders="1" name="delta_t" class_name="InputPortBlock" id="GLEw3y-7KCI7Nk5yLTBt-3"><mxCell style="triangle;fontSize=14;points=[[0,0.5],[1,0.5]];allowArrows=0;verticalAlign=middle;horizontal=1;spacingTop=0;align=right;spacingLeft=0;spacingRight=8;html=1;comic=0;treeFolding=0;treeMoving=0;resizable=0;movableLabel=1;spacing=2;aspect=fixed;metaEdit=1;" parent="xnaQbwarpPeM3jdV9O5F-3" vertex="1"><mxGeometry x="76" y="352.5" width="10" height="15" as="geometry"><mxPoint x="-4" y="-8" as="offset"/></mxGeometry></mxCell></object><object label="%symbol%" placeholders="1" symbol="&amp;prod;" class_name="ProductBlock" block_name="delta_halver" id="GLEw3y-7KCI7Nk5yLTBt-4"><mxCell style="whiteSpace=wrap;html=1;aspect=fixed;comic=0;fontSize=36;align=center;resizable=0;container=1;collapsible=0;points=[];allowArrows=0;spacingTop=-6;metaEdit=1;connectable=0;" parent="xnaQbwarpPeM3jdV9O5F-3" vertex="1"><mxGeometry x="266" y="350" width="80" height="80" as="geometry"/></mxCell></object><object label="%name%" placeholders="1" name="OUT1" class_name="OutputPortBlock" id="GLEw3y-7KCI7Nk5yLTBt-5"><mxCell style="triangle;fontSize=14;points=[[1,0.5]];allowArrows=0;verticalAlign=middle;horizontal=1;spacingTop=0;align=left;spacingLeft=4;spacingRight=0;html=1;comic=0;treeFolding=0;treeMoving=0;movable=1;resizable=0;rotatable=1;deletable=1;editable=1;connectable=1;movableLabel=1;spacing=2;aspect=fixed;metaEdit=1;" parent="GLEw3y-7KCI7Nk5yLTBt-4" vertex="1"><mxGeometry x="70" y="32.5" width="10" height="15" as="geometry"><mxPoint x="5" y="-7" as="offset"/></mxGeometry></mxCell></object><object label="%name%" placeholders="1" name="IN1" class_name="InputPortBlock" id="GLEw3y-7KCI7Nk5yLTBt-6"><mxCell style="triangle;fontSize=14;points=[[0,0.5]];allowArrows=0;verticalAlign=middle;horizontal=1;spacingTop=0;align=right;spacingLeft=0;spacingRight=8;html=1;comic=0;treeFolding=0;treeMoving=0;resizable=0;movableLabel=1;spacing=2;aspect=fixed;metaEdit=1;" parent="GLEw3y-7KCI7Nk5yLTBt-4" vertex="1"><mxGeometry y="17.5" width="10" height="15" as="geometry"><mxPoint x="-4" y="-8" as="offset"/></mxGeometry></mxCell></object><object label="%name%" placeholders="1" name="IN2" class_name="InputPortBlock" id="GLEw3y-7KCI7Nk5yLTBt-7"><mxCell style="triangle;fontSize=14;points=[[0,0.5]];allowArrows=0;verticalAlign=middle;horizontal=1;spacingTop=0;align=right;spacingLeft=0;spacingRight=8;html=1;comic=0;treeFolding=0;treeMoving=0;resizable=0;movableLabel=1;spacing=2;aspect=fixed;metaEdit=1;" parent="GLEw3y-7KCI7Nk5yLTBt-4" vertex="1"><mxGeometry y="47.5" width="10" height="15" as="geometry"><mxPoint x="-4" y="-8" as="offset"/></mxGeometry></mxCell></object><mxCell id="GLEw3y-7KCI7Nk5yLTBt-8" style="edgeStyle=orthogonalEdgeStyle;rounded=0;orthogonalLoop=1;jettySize=auto;html=1;exitX=1;exitY=0.5;exitDx=0;exitDy=0;entryX=0;entryY=0.5;entryDx=0;entryDy=0;" parent="xnaQbwarpPeM3jdV9O5F-3" source="GLEw3y-7KCI7Nk5yLTBt-5" target="xnaQbwarpPeM3jdV9O5F-36" edge="1"><mxGeometry relative="1" as="geometry"/></mxCell><mxCell id="GLEw3y-7KCI7Nk5yLTBt-10" style="edgeStyle=orthogonalEdgeStyle;rounded=0;orthogonalLoop=1;jettySize=auto;html=1;exitX=1;exitY=0.5;exitDx=0;exitDy=0;entryX=0;entryY=0.5;entryDx=0;entryDy=0;" parent="xnaQbwarpPeM3jdV9O5F-3" source="xnaQbwarpPeM3jdV9O5F-39" target="GLEw3y-7KCI7Nk5yLTBt-7" edge="1"><mxGeometry relative="1" as="geometry"/></mxCell></root></mxGraphModel></diagram></mxfile>